<svg height="511pt" viewBox="0 -25 511.99974 511" width="511pt" xmlns="http://www.w3.org/2000/svg"><path d="m508.535156 217.972656c-2.15625-1.375-4.871094-1.558594-7.191406-.480468l-37.394531 17.351562c11.070312-16.429688 17.539062-36.207031 17.539062-57.460938 0-56.871093-46.285156-103.136718-103.179687-103.136718-56.894532 0-103.179688 46.265625-103.179688 103.136718 0 53.007813 40.214844 96.792969 91.746094 102.496094l-362.53125 168.203125c-3.191406 1.480469-4.925781 4.984375-4.167969 8.421875.761719 3.4375 3.804688 5.882813 7.324219 5.882813h362.964844c4.144531 0 7.5-3.355469 7.5-7.5 0-4.140625-3.355469-7.5-7.5-7.5h-328.980469l455.515625-211.34375v211.34375h-91.535156c-4.144532 0-7.5 3.355469-7.5 7.5s3.355468 7.5 7.5 7.5h99.035156c4.144531 0 7.5-3.355469 7.5-7.5v-230.589844c0-2.558594-1.304688-4.945313-3.464844-6.324219zm-218.40625-40.589844c0-48.597656 39.558594-88.136718 88.179688-88.136718s88.179687 39.539062 88.179687 88.136718c0 48.597657-39.558593 88.132813-88.179687 88.132813s-88.179688-39.535156-88.179688-88.132813zm0 0"/><path d="m27.824219 364.25c1.066406 0 2.152343-.230469 3.179687-.714844l212.230469-99.523437-14.851563 26.339843c-2.03125 3.609376-.757812 8.183594 2.851563 10.214844 3.605469 2.035156 8.183594.761719 10.214844-2.847656l26.371093-46.773438c2.492188-4.402343-.214843-10.15625-5.1875-11.0625l-52.84375-9.625c-4.070312-.734374-7.980468 1.960938-8.722656 6.035157-.742187 4.078125 1.960938 7.980469 6.035156 8.722656l29.753907 5.421875-212.21875 99.519531c-3.75 1.757813-5.363281 6.222657-3.605469 9.972657 1.273438 2.722656 3.976562 4.320312 6.792969 4.320312zm0 0"/><path d="m106.664062 119.410156c.734376 2.773438 3.070313 4.9375 5.898438 5.453125l52.839844 9.625c.453125.085938.90625.125 1.351562.125 3.554688 0 6.710938-2.539062 7.371094-6.15625.742188-4.078125-1.960938-7.980469-6.035156-8.726562l-29.753906-5.417969 212.222656-99.519531c3.75-1.757813 5.363281-6.226563 3.605468-9.976563-1.761718-3.75-6.226562-5.363281-9.976562-3.605468l-212.230469 99.523437 14.851563-26.339844c2.035156-3.605469.761718-8.179687-2.847656-10.214843-3.609376-2.035157-8.183594-.757813-10.21875 2.851562l-26.371094 46.769531c-.953125 1.6875-1.207032 3.742188-.707032 5.609375zm0 0"/></svg>