<svg id="Layer_35" enable-background="new 0 0 64 64" height="512" viewBox="0 0 64 64" width="512" xmlns="http://www.w3.org/2000/svg"><path d="m21.158 41.233c2.008.645 4.053 1.114 6.086 1.409.478-.665.756-1.472.756-2.327v-1.249c-4.903-3.182-8-8.674-8-14.715v-7.351h1l.172.172c1.811 1.811 4.267 2.828 6.828 2.828v-3l.172.172c1.811 1.811 4.267 2.828 6.828 2.828v-3l.172.172c1.811 1.811 4.267 2.828 6.828 2.828h2v4.351c0 6.041-3.097 11.533-8 14.715v1.249c0 .855.278 1.662.756 2.328 2.033-.294 4.078-.763 6.086-1.409 3.683-1.186 6.158-4.619 6.158-8.541v-14.693c0-9.374-7.626-17-17-17s-17 7.626-17 17v14.693c0 3.922 2.475 7.355 6.158 8.54z" fill="#f0bc5e"/><path d="m49.123 47.288-10.259-4.197c-1.133-.463-1.864-1.553-1.864-2.777v-.718c4.921-3.401 8-9.039 8-15.245v-5.351h-3c-2.312 0-4.486-.9-6.121-2.536l-1.879-1.873v4.353c-1.935-.221-3.725-1.082-5.122-2.48l-1.878-1.873v4.353c-1.935-.221-3.725-1.082-5.122-2.48l-.465-.464h-2.413v8.351c0 6.206 3.079 11.845 8 15.245v.718c0 1.224-.731 2.313-1.864 2.776l-10.259 4.197c-6 2.455-9.877 8.231-9.877 14.713v1h54v-1c0-6.482-3.877-12.258-9.877-14.712zm-28.123-22.937v-5.972c1.94 1.696 4.398 2.621 7 2.621h1v-1.846c1.755 1.2 3.827 1.846 6 1.846h1v-1.846c1.755 1.2 3.827 1.846 6 1.846h1v3.351c0 7.023-4.406 13.247-11 15.591-6.594-2.344-11-8.568-11-15.591zm10.684 17.597.316.106.316-.105c.947-.316 1.855-.702 2.719-1.152.082.857.371 1.662.842 2.349-.944 1.17-2.349 1.854-3.877 1.854s-2.933-.684-3.878-1.856c.471-.686.76-1.491.842-2.349.864.451 1.773.838 2.72 1.153zm-5.79 2.994c.279-.114.538-.258.787-.415 1.318 1.561 3.233 2.473 5.319 2.473s4.001-.912 5.32-2.473c.248.157.507.301.787.415l3.48 1.424c-1.301 2.311-3.41 4.105-5.92 4.994l-.667.236v9.404h-6v-9.404l-.666-.235c-2.511-.89-4.619-2.683-5.92-4.994zm-10.259 4.198 4.921-2.013c1.412 2.625 3.694 4.712 6.444 5.862v8.011h-10v-6h-2v6h-7.965c.373-5.255 3.665-9.842 8.6-11.86zm33.365 11.86v-6h-2v6h-10v-8.012c2.75-1.149 5.032-3.237 6.444-5.862l4.921 2.013c4.935 2.019 8.227 6.605 8.6 11.86h-7.965z"/><circle cx="26" cy="24" r="1"/><circle cx="38" cy="24" r="1"/><path d="m36 32h-2c0 1.103-.897 2-2 2s-2-.897-2-2h-2c0 2.206 1.794 4 4 4s4-1.794 4-4z"/><path d="m31 57h2v2h-2z"/><path d="m31 53h2v2h-2z"/><path d="m31 49h2v2h-2z"/><path d="m32 7v-2c-3.693 0-7.225 1.58-9.689 4.333l1.49 1.334c2.086-2.331 5.074-3.667 8.199-3.667z"/><path d="m22.471 12.5-1.73-1.002c-.398.688-.735 1.418-1 2.168l1.885.667c.224-.634.508-1.25.845-1.833z"/></svg>